<svg width="40" height="40" viewBox="0 0 40 40" fill="none" xmlns="http://www.w3.org/2000/svg">
<path d="M8.48894 3.21518e-05H1.43914C0.644326 3.21518e-05 0 0.644358 0 1.43917V8.48897C0 9.28378 0.644326 9.92811 1.43914 9.92811H8.48894C9.28376 9.92811 9.92808 9.28378 9.92808 8.48897V1.43917C9.92808 0.644358 9.28376 3.21518e-05 8.48894 3.21518e-05Z" fill="#82B4C9"/>
<path d="M8.48894 15.036H1.43914C0.644326 15.036 0 15.6804 0 16.4752V23.525C0 24.3198 0.644326 24.9641 1.43914 24.9641H8.48894C9.28376 24.9641 9.92808 24.3198 9.92808 23.525V16.4752C9.92808 15.6804 9.28376 15.036 8.48894 15.036Z" fill="#DAE9EE"/>
<path d="M8.48894 30.0719H1.43914C0.644326 30.0719 0 30.7162 0 31.511V38.5608C0 39.3556 0.644326 39.9999 1.43914 39.9999H8.48894C9.28376 39.9999 9.92808 39.3556 9.92808 38.5608V31.511C9.92808 30.7162 9.28376 30.0719 8.48894 30.0719Z" fill="#3A7D95"/>
<path d="M23.5249 0H16.4751C15.6803 0 15.036 0.644326 15.036 1.43914V8.48893C15.036 9.28375 15.6803 9.92808 16.4751 9.92808H23.5249C24.3197 9.92808 24.9641 9.28375 24.9641 8.48893V1.43914C24.9641 0.644326 24.3197 0 23.5249 0Z" fill="#DAE9EE"/>
<path d="M23.5249 15.036H16.4751C15.6803 15.036 15.036 15.6804 15.036 16.4752V23.525C15.036 24.3198 15.6803 24.9641 16.4751 24.9641H23.5249C24.3197 24.9641 24.9641 24.3198 24.9641 23.525V16.4752C24.9641 15.6804 24.3197 15.036 23.5249 15.036Z" fill="#82B4C9"/>
<path d="M23.5249 30.0719H16.4751C15.6803 30.0719 15.036 30.7162 15.036 31.511V38.5608C15.036 39.3556 15.6803 39.9999 16.4751 39.9999H23.5249C24.3197 39.9999 24.9641 39.3556 24.9641 38.5608V31.511C24.9641 30.7162 24.3197 30.0719 23.5249 30.0719Z" fill="#DAE9EE"/>
<path d="M38.5609 0H31.5111C30.7163 0 30.0719 0.644326 30.0719 1.43914V8.48893C30.0719 9.28375 30.7163 9.92808 31.5111 9.92808H38.5609C39.3557 9.92808 40 9.28375 40 8.48893V1.43914C40 0.644326 39.3557 0 38.5609 0Z" fill="#DAE9EE"/>
<path d="M38.5609 15.036H31.5111C30.7163 15.036 30.0719 15.6804 30.0719 16.4752V23.525C30.0719 24.3198 30.7163 24.9641 31.5111 24.9641H38.5609C39.3557 24.9641 40 24.3198 40 23.525V16.4752C40 15.6804 39.3557 15.036 38.5609 15.036Z" fill="#DAE9EE"/>
<path d="M38.5609 30.0719H31.5111C30.7163 30.0719 30.0719 30.7162 30.0719 31.511V38.5608C30.0719 39.3556 30.7163 39.9999 31.5111 39.9999H38.5609C39.3557 39.9999 40 39.3556 40 38.5608V31.511C40 30.7162 39.3557 30.0719 38.5609 30.0719Z" fill="#82B4C9"/>
<path d="M18.6757 3.13649L3.48687 18.5442L6.44184 21.4572L21.6306 6.04947L18.6757 3.13649Z" fill="#DAE9EE"/>
<path d="M33.5544 18.5506L26 26.0612L18.533 33.5719L21.467 36.506L36.4884 21.4846L33.5544 18.5506Z" fill="#DAE9EE"/>
<path d="M21.6467 3.15414L18.6594 6.03393L33.5268 21.4565L36.5141 18.5767L21.6467 3.15414Z" fill="#DAE9EE"/>
</svg>
